<?xml version="1.0" ?><svg enable-background="new 0 0 203.4064 167.0059" id="twitter" version="1.1" viewBox="0 0 203.4064 167.0059" xml:space="preserve" xmlns="http://www.w3.org/2000/svg" xmlns:xlink="http://www.w3.org/1999/xlink"><path d="M203.4064,19.7692c-6.5468,4.9592-22.8616,6.2656-22.8616,6.2656  c17.512-13.7536,16.8712-22.6384,16.8712-22.6424c-11.1892,8.1268-22.3904,9.1112-27.836,9.0196  C162.1484,4.7516,151.8144,0,140.3908,0c-22.6116,0-40.9456,18.6052-40.9456,41.5448c0,3.576,0.4496,7.0352,1.2796,10.34  c-47.6464,2.74-86.09-43.3968-86.09-43.3968C-3.1544,39.3476,25.5372,64.1092,25.5372,64.1092  c-7.746,1.168-16.3536-5.246-16.3536-5.246c-0.576,35.242,31.2776,41.9452,31.2776,41.9452c-6.3108,2.9084-16.928,0.58-16.928,0.58  c8.8948,29.1212,37.0156,28.8284,37.0156,28.8284C38.748,154.6872,0,147.6912,0,147.6912c37.0136,28.25,88.094,17.176,88.094,17.176  C188.8164,141,182.2052,43.5368,182.2052,43.5368C201.838,25.4764,203.4064,19.7692,203.4064,19.7692z" fill="#50CCD3"/></svg>